<?xml version="1.0" encoding="UTF-8" standalone="no"?>
<!DOCTYPE svg PUBLIC "-//W3C//DTD SVG 1.1//EN" "http://www.w3.org/Graphics/SVG/1.1/DTD/svg11.dtd">
<svg width="100%" height="100%" viewBox="0 0 261 66" version="1.1" xmlns="http://www.w3.org/2000/svg" xmlns:xlink="http://www.w3.org/1999/xlink" xml:space="preserve" xmlns:serif="http://www.serif.com/" style="fill-rule:evenodd;clip-rule:evenodd;stroke-linejoin:round;stroke-miterlimit:2;">
    <g id="logo-symbol-wordmark">
        <path d="M60.754,14.403C59.814,7.419 53.727,1.916 46.512,0.849C45.294,0.669 40.682,0.013 29.997,0.013L29.918,0.013C19.23,0.013 16.937,0.669 15.72,0.849C8.705,1.886 2.299,6.832 0.745,13.898C-0.003,17.378 -0.083,21.237 0.056,24.776C0.254,29.851 0.293,34.918 0.753,39.973C1.072,43.331 1.628,46.661 2.417,49.941C3.894,55.997 9.875,61.037 15.734,63.093C22.008,65.237 28.754,65.593 35.218,64.121C35.93,63.956 36.632,63.764 37.325,63.545C38.897,63.046 40.738,62.487 42.091,61.507C42.11,61.493 42.125,61.475 42.136,61.455C42.147,61.434 42.153,61.412 42.153,61.389L42.153,56.49C42.153,56.469 42.148,56.448 42.138,56.428C42.129,56.409 42.115,56.392 42.098,56.379C42.081,56.365 42.061,56.356 42.04,56.351C42.019,56.347 41.997,56.347 41.976,56.351C37.835,57.341 33.591,57.836 29.332,57.829C22.005,57.829 20.034,54.351 19.469,52.904C19.016,51.653 18.728,50.348 18.612,49.022C18.611,49 18.615,48.977 18.624,48.957C18.633,48.937 18.647,48.919 18.664,48.905C18.682,48.89 18.702,48.881 18.724,48.876C18.746,48.871 18.768,48.872 18.79,48.877C22.862,49.859 27.037,50.355 31.227,50.354C32.234,50.354 33.239,50.354 34.246,50.328C38.46,50.209 42.901,49.994 47.047,49.184C47.15,49.164 47.253,49.146 47.342,49.119C53.881,47.864 60.104,43.923 60.736,33.943C60.76,33.55 60.819,29.828 60.819,29.42C60.822,28.035 61.265,19.591 60.754,14.403Z" style="fill:url(#_Linear1);fill-rule:nonzero;"/>
        <path d="M12.344,18.303C12.344,16.267 13.978,14.619 15.997,14.619C18.016,14.619 19.65,16.267 19.65,18.303C19.65,20.34 18.016,21.987 15.997,21.987C13.978,21.987 12.344,20.34 12.344,18.303Z" style="fill:rgb(86,58,204);fill-rule:nonzero;"/>
        <path d="M66.148,21.469L66.148,38.384L59.499,38.384L59.499,21.974C59.499,18.511 58.058,16.76 55.164,16.76C51.975,16.76 50.367,18.848 50.367,22.96L50.367,31.95L43.769,31.95L43.769,22.96C43.769,18.835 42.174,16.76 38.971,16.76C36.09,16.76 34.637,18.511 34.637,21.974L34.637,38.384L28,38.384L28,21.469C28,18.018 28.875,15.268 30.624,13.231C32.437,11.195 34.804,10.157 37.737,10.157C41.132,10.157 43.717,11.48 45.415,14.114L47.074,16.915L48.733,14.114C50.431,11.48 53.004,10.157 56.412,10.157C59.344,10.157 61.711,11.195 63.525,13.231C65.274,15.268 66.148,18.005 66.148,21.469ZM89.03,29.874C90.406,28.409 91.062,26.58 91.062,24.361C91.062,22.143 90.406,20.301 89.03,18.9C87.705,17.434 86.033,16.734 84.001,16.734C81.969,16.734 80.297,17.434 78.972,18.9C77.647,20.301 76.991,22.143 76.991,24.361C76.991,26.58 77.647,28.422 78.972,29.874C80.297,31.275 81.969,31.989 84.001,31.989C86.033,31.989 87.705,31.288 89.03,29.874ZM91.062,10.832L97.609,10.832L97.609,37.891L91.062,37.891L91.062,34.7C89.081,37.346 86.342,38.656 82.779,38.656C79.216,38.656 76.477,37.307 74.046,34.544C71.653,31.781 70.444,28.37 70.444,24.374C70.444,20.379 71.666,17.019 74.046,14.256C76.489,11.493 79.383,10.092 82.779,10.092C86.174,10.092 89.081,11.389 91.062,14.036L91.062,10.832ZM119.654,23.868C121.583,25.334 122.548,27.384 122.496,29.978C122.496,32.741 121.532,34.908 119.551,36.412C117.57,37.878 115.178,38.63 112.284,38.63C107.049,38.63 103.499,36.464 101.621,32.196L107.306,28.785C108.065,31.107 109.737,32.3 112.284,32.3C114.625,32.3 115.782,31.548 115.782,29.978C115.782,28.837 114.265,27.812 111.165,27.008C109.995,26.683 109.03,26.359 108.271,26.087C107.204,25.659 106.29,25.166 105.532,24.569C103.654,23.103 102.689,21.157 102.689,18.667C102.689,16.02 103.602,13.906 105.429,12.388C107.306,10.819 109.596,10.066 112.335,10.066C116.709,10.066 119.898,11.96 121.982,15.8L116.4,19.043C115.59,17.201 114.213,16.28 112.335,16.28C110.355,16.28 109.39,17.032 109.39,18.498C109.39,19.64 110.908,20.664 114.008,21.469C116.4,22.013 118.278,22.818 119.641,23.855L119.654,23.868ZM140.49,17.538L134.741,17.538L134.741,28.798C134.741,30.147 135.255,30.964 136.22,31.34C136.927,31.613 138.355,31.665 140.49,31.561L140.49,37.891C136.079,38.436 132.876,37.995 130.998,36.542C129.12,35.141 128.207,32.534 128.207,28.811L128.207,17.538L123.795,17.538L123.795,10.832L128.207,10.832L128.207,5.37L134.754,3.256L134.754,10.832L140.49,10.832L140.49,17.538ZM161.352,29.719C162.677,28.318 163.333,26.528 163.333,24.361C163.333,22.195 162.677,20.418 161.352,19.004C160.027,17.603 158.407,16.889 156.426,16.889C154.445,16.889 152.825,17.59 151.5,19.004C150.227,20.47 149.571,22.247 149.571,24.361C149.571,26.476 150.227,28.253 151.5,29.719C152.825,31.12 154.445,31.833 156.426,31.833C158.407,31.833 160.027,31.133 161.352,29.719ZM146.883,34.531C144.297,31.768 143.024,28.422 143.024,24.361C143.024,20.301 144.297,17.006 146.883,14.243C149.468,11.48 152.67,10.079 156.426,10.079C160.182,10.079 163.384,11.48 165.97,14.243C168.555,17.006 169.88,20.418 169.88,24.361C169.88,28.305 168.555,31.768 165.97,34.531C163.384,37.294 160.233,38.643 156.426,38.643C152.619,38.643 149.468,37.294 146.883,34.531ZM191.771,29.874C193.095,28.409 193.751,26.58 193.751,24.361C193.751,22.143 193.095,20.301 191.771,18.9C190.446,17.434 188.774,16.734 186.742,16.734C184.709,16.734 183.037,17.434 181.661,18.9C180.336,20.301 179.68,22.143 179.68,24.361C179.68,26.58 180.336,28.422 181.661,29.874C183.037,31.275 184.761,31.989 186.742,31.989C188.722,31.989 190.446,31.288 191.771,29.874ZM193.751,0L200.298,0L200.298,37.891L193.751,37.891L193.751,34.7C191.822,37.346 189.082,38.656 185.52,38.656C181.957,38.656 179.179,37.307 176.735,34.544C174.343,31.781 173.134,28.37 173.134,24.374C173.134,20.379 174.356,17.019 176.735,14.256C179.166,11.493 182.111,10.092 185.52,10.092C188.928,10.092 191.822,11.389 193.751,14.036L193.751,0ZM223.308,29.706C224.633,28.305 225.289,26.515 225.289,24.348C225.289,22.182 224.633,20.405 223.308,18.991C221.983,17.59 220.363,16.877 218.382,16.877C216.401,16.877 214.78,17.577 213.456,18.991C212.182,20.457 211.526,22.234 211.526,24.348C211.526,26.463 212.182,28.24 213.456,29.706C214.78,31.107 216.401,31.82 218.382,31.82C220.363,31.82 221.983,31.12 223.308,29.706ZM208.838,34.518C206.253,31.755 204.98,28.409 204.98,24.348C204.98,20.288 206.253,16.993 208.838,14.23C211.424,11.467 214.626,10.066 218.382,10.066C222.137,10.066 225.34,11.467 227.925,14.23C230.511,16.993 231.835,20.405 231.835,24.348C231.835,28.292 230.511,31.755 227.925,34.518C225.34,37.281 222.189,38.63 218.382,38.63C214.575,38.63 211.424,37.281 208.838,34.518ZM260.17,21.261L260.17,37.878L253.623,37.878L253.623,22.13C253.623,20.34 253.173,18.991 252.247,17.966C251.385,17.045 250.164,16.565 248.594,16.565C244.89,16.565 243.012,18.783 243.012,23.272L243.012,37.878L236.466,37.878L236.466,10.832L243.012,10.832L243.012,13.867C244.581,11.325 247.077,10.079 250.575,10.079C253.366,10.079 255.656,11.052 257.431,13.05C259.257,15.047 260.17,17.759 260.17,21.274" style="fill:rgb(86,58,204);fill-rule:nonzero;"/>
    </g>
    <g id="logo-symbol-wordmark1" serif:id="logo-symbol-wordmark">
        <path d="M60.754,14.403C59.814,7.419 53.727,1.916 46.512,0.849C45.294,0.669 40.682,0.013 29.997,0.013L29.918,0.013C19.23,0.013 16.937,0.669 15.72,0.849C8.705,1.886 2.299,6.832 0.745,13.898C-0.003,17.378 -0.083,21.237 0.056,24.776C0.254,29.851 0.293,34.918 0.753,39.973C1.072,43.331 1.628,46.661 2.417,49.941C3.894,55.997 9.875,61.037 15.734,63.093C22.008,65.237 28.754,65.593 35.218,64.121C35.93,63.956 36.632,63.764 37.325,63.545C38.897,63.046 40.738,62.487 42.091,61.507C42.11,61.493 42.125,61.475 42.136,61.455C42.147,61.434 42.153,61.412 42.153,61.389L42.153,56.49C42.153,56.469 42.148,56.448 42.138,56.428C42.129,56.409 42.115,56.392 42.098,56.379C42.081,56.365 42.061,56.356 42.04,56.351C42.019,56.347 41.997,56.347 41.976,56.351C37.835,57.341 33.591,57.836 29.332,57.829C22.005,57.829 20.034,54.351 19.469,52.904C19.016,51.653 18.728,50.348 18.612,49.022C18.611,49 18.615,48.977 18.624,48.957C18.633,48.937 18.647,48.919 18.664,48.905C18.682,48.89 18.702,48.881 18.724,48.876C18.746,48.871 18.768,48.872 18.79,48.877C22.862,49.859 27.037,50.355 31.227,50.354C32.234,50.354 33.239,50.354 34.246,50.328C38.46,50.209 42.901,49.994 47.047,49.184C47.15,49.164 47.253,49.146 47.342,49.119C53.881,47.864 60.104,43.923 60.736,33.943C60.76,33.55 60.819,29.828 60.819,29.42C60.822,28.035 61.265,19.591 60.754,14.403Z" style="fill:url(#_Linear2);fill-rule:nonzero;"/>
        <path d="M12.344,18.303C12.344,16.267 13.978,14.619 15.997,14.619C18.016,14.619 19.65,16.267 19.65,18.303C19.65,20.34 18.016,21.987 15.997,21.987C13.978,21.987 12.344,20.34 12.344,18.303Z" style="fill:url(#_Linear3);fill-rule:nonzero;"/>
        <path d="M66.148,21.469L66.148,38.384L59.499,38.384L59.499,21.974C59.499,18.511 58.058,16.76 55.164,16.76C51.975,16.76 50.367,18.848 50.367,22.96L50.367,31.95L43.769,31.95L43.769,22.96C43.769,18.835 42.174,16.76 38.971,16.76C36.09,16.76 34.637,18.511 34.637,21.974L34.637,38.384L28,38.384L28,21.469C28,18.018 28.875,15.268 30.624,13.231C32.437,11.195 34.804,10.157 37.737,10.157C41.132,10.157 43.717,11.48 45.415,14.114L47.074,16.915L48.733,14.114C50.431,11.48 53.004,10.157 56.412,10.157C59.344,10.157 61.711,11.195 63.525,13.231C65.274,15.268 66.148,18.005 66.148,21.469ZM89.03,29.874C90.406,28.409 91.062,26.58 91.062,24.361C91.062,22.143 90.406,20.301 89.03,18.9C87.705,17.434 86.033,16.734 84.001,16.734C81.969,16.734 80.297,17.434 78.972,18.9C77.647,20.301 76.991,22.143 76.991,24.361C76.991,26.58 77.647,28.422 78.972,29.874C80.297,31.275 81.969,31.989 84.001,31.989C86.033,31.989 87.705,31.288 89.03,29.874ZM91.062,10.832L97.609,10.832L97.609,37.891L91.062,37.891L91.062,34.7C89.081,37.346 86.342,38.656 82.779,38.656C79.216,38.656 76.477,37.307 74.046,34.544C71.653,31.781 70.444,28.37 70.444,24.374C70.444,20.379 71.666,17.019 74.046,14.256C76.489,11.493 79.383,10.092 82.779,10.092C86.174,10.092 89.081,11.389 91.062,14.036L91.062,10.832ZM119.654,23.868C121.583,25.334 122.548,27.384 122.496,29.978C122.496,32.741 121.532,34.908 119.551,36.412C117.57,37.878 115.178,38.63 112.284,38.63C107.049,38.63 103.499,36.464 101.621,32.196L107.306,28.785C108.065,31.107 109.737,32.3 112.284,32.3C114.625,32.3 115.782,31.548 115.782,29.978C115.782,28.837 114.265,27.812 111.165,27.008C109.995,26.683 109.03,26.359 108.271,26.087C107.204,25.659 106.29,25.166 105.532,24.569C103.654,23.103 102.689,21.157 102.689,18.667C102.689,16.02 103.602,13.906 105.429,12.388C107.306,10.819 109.596,10.066 112.335,10.066C116.709,10.066 119.898,11.96 121.982,15.8L116.4,19.043C115.59,17.201 114.213,16.28 112.335,16.28C110.355,16.28 109.39,17.032 109.39,18.498C109.39,19.64 110.908,20.664 114.008,21.469C116.4,22.013 118.278,22.818 119.641,23.855L119.654,23.868ZM140.49,17.538L134.741,17.538L134.741,28.798C134.741,30.147 135.255,30.964 136.22,31.34C136.927,31.613 138.355,31.665 140.49,31.561L140.49,37.891C136.079,38.436 132.876,37.995 130.998,36.542C129.12,35.141 128.207,32.534 128.207,28.811L128.207,17.538L123.795,17.538L123.795,10.832L128.207,10.832L128.207,5.37L134.754,3.256L134.754,10.832L140.49,10.832L140.49,17.538ZM161.352,29.719C162.677,28.318 163.333,26.528 163.333,24.361C163.333,22.195 162.677,20.418 161.352,19.004C160.027,17.603 158.407,16.889 156.426,16.889C154.445,16.889 152.825,17.59 151.5,19.004C150.227,20.47 149.571,22.247 149.571,24.361C149.571,26.476 150.227,28.253 151.5,29.719C152.825,31.12 154.445,31.833 156.426,31.833C158.407,31.833 160.027,31.133 161.352,29.719ZM146.883,34.531C144.297,31.768 143.024,28.422 143.024,24.361C143.024,20.301 144.297,17.006 146.883,14.243C149.468,11.48 152.67,10.079 156.426,10.079C160.182,10.079 163.384,11.48 165.97,14.243C168.555,17.006 169.88,20.418 169.88,24.361C169.88,28.305 168.555,31.768 165.97,34.531C163.384,37.294 160.233,38.643 156.426,38.643C152.619,38.643 149.468,37.294 146.883,34.531ZM191.771,29.874C193.095,28.409 193.751,26.58 193.751,24.361C193.751,22.143 193.095,20.301 191.771,18.9C190.446,17.434 188.774,16.734 186.742,16.734C184.709,16.734 183.037,17.434 181.661,18.9C180.336,20.301 179.68,22.143 179.68,24.361C179.68,26.58 180.336,28.422 181.661,29.874C183.037,31.275 184.761,31.989 186.742,31.989C188.722,31.989 190.446,31.288 191.771,29.874ZM193.751,0L200.298,0L200.298,37.891L193.751,37.891L193.751,34.7C191.822,37.346 189.082,38.656 185.52,38.656C181.957,38.656 179.179,37.307 176.735,34.544C174.343,31.781 173.134,28.37 173.134,24.374C173.134,20.379 174.356,17.019 176.735,14.256C179.166,11.493 182.111,10.092 185.52,10.092C188.928,10.092 191.822,11.389 193.751,14.036L193.751,0ZM223.308,29.706C224.633,28.305 225.289,26.515 225.289,24.348C225.289,22.182 224.633,20.405 223.308,18.991C221.983,17.59 220.363,16.877 218.382,16.877C216.401,16.877 214.78,17.577 213.456,18.991C212.182,20.457 211.526,22.234 211.526,24.348C211.526,26.463 212.182,28.24 213.456,29.706C214.78,31.107 216.401,31.82 218.382,31.82C220.363,31.82 221.983,31.12 223.308,29.706ZM208.838,34.518C206.253,31.755 204.98,28.409 204.98,24.348C204.98,20.288 206.253,16.993 208.838,14.23C211.424,11.467 214.626,10.066 218.382,10.066C222.137,10.066 225.34,11.467 227.925,14.23C230.511,16.993 231.835,20.405 231.835,24.348C231.835,28.292 230.511,31.755 227.925,34.518C225.34,37.281 222.189,38.63 218.382,38.63C214.575,38.63 211.424,37.281 208.838,34.518ZM260.17,21.261L260.17,37.878L253.623,37.878L253.623,22.13C253.623,20.34 253.173,18.991 252.247,17.966C251.385,17.045 250.164,16.565 248.594,16.565C244.89,16.565 243.012,18.783 243.012,23.272L243.012,37.878L236.466,37.878L236.466,10.832L243.012,10.832L243.012,13.867C244.581,11.325 247.077,10.079 250.575,10.079C253.366,10.079 255.656,11.052 257.431,13.05C259.257,15.047 260.17,17.759 260.17,21.274" style="fill:url(#_Linear4);fill-rule:nonzero;"/>
    </g>
    <defs>
        <linearGradient id="_Linear1" x1="0" y1="0" x2="1" y2="0" gradientUnits="userSpaceOnUse" gradientTransform="matrix(3.9801e-15,65,-65,3.9801e-15,30.5,0.0130005)"><stop offset="0" style="stop-color:rgb(99,100,255);stop-opacity:1"/><stop offset="1" style="stop-color:rgb(86,58,204);stop-opacity:1"/></linearGradient>
        <linearGradient id="_Linear2" x1="0" y1="0" x2="1" y2="0" gradientUnits="userSpaceOnUse" gradientTransform="matrix(3.9801e-15,65,-65,3.9801e-15,30.5,0.0130005)"><stop offset="0" style="stop-color:rgb(255,183,197);stop-opacity:1"/><stop offset="1" style="stop-color:rgb(232,211,209);stop-opacity:1"/></linearGradient>
        <linearGradient id="_Linear3" x1="0" y1="0" x2="1" y2="0" gradientUnits="userSpaceOnUse" gradientTransform="matrix(7.3055,0,0,7.368,12.3442,18.3034)"><stop offset="0" style="stop-color:rgb(177,92,101);stop-opacity:1"/><stop offset="1" style="stop-color:rgb(177,92,101);stop-opacity:1"/></linearGradient>
        <linearGradient id="_Linear4" x1="0" y1="0" x2="1" y2="0" gradientUnits="userSpaceOnUse" gradientTransform="matrix(232.17,0,0,38.6563,28,19.3282)"><stop offset="0" style="stop-color:rgb(177,92,101);stop-opacity:1"/><stop offset="1" style="stop-color:rgb(177,92,101);stop-opacity:1"/></linearGradient>
    </defs>
</svg>
